<?xml version="1.0" encoding="UTF-8" standalone="no"?><svg width="20" height="17" viewBox="0 0 20 17" fill="none" xmlns="http://www.w3.org/2000/svg">
<path d="M14.875 11.0894L17.3225 1.50632H20V0H16.1525L15.5756 2.25904L0 2.2479L1.65592 11.0893H14.875V11.0894ZM15.191 3.7651L13.7051 9.58306H2.9063L1.81486 3.75553L15.191 3.7651Z" fill="white"/>
<path d="M12.8132 16.5789C14.1415 16.5789 15.2221 15.4982 15.2221 14.17C15.2221 12.8418 14.1415 11.7612 12.8132 11.7612H3.73761C2.40937 11.7612 1.32874 12.8418 1.32874 14.17C1.32874 15.4982 2.40935 16.5789 3.73761 16.5789C5.06588 16.5789 6.14647 15.4982 6.14647 14.17C6.14647 13.851 6.08398 13.5464 5.97087 13.2675H10.58C10.4669 13.5464 10.4044 13.851 10.4044 14.17C10.4044 15.4982 11.485 16.5789 12.8132 16.5789ZM4.64015 14.17C4.64015 14.6677 4.23528 15.0726 3.73761 15.0726C3.23995 15.0726 2.83506 14.6677 2.83506 14.17C2.83506 13.6724 3.23993 13.2675 3.73761 13.2675C4.23528 13.2675 4.64015 13.6724 4.64015 14.17ZM13.7158 14.17C13.7158 14.6677 13.3109 15.0726 12.8133 15.0726C12.3156 15.0726 11.9107 14.6677 11.9107 14.17C11.9107 13.6724 12.3156 13.2675 12.8133 13.2675C13.3109 13.2675 13.7158 13.6724 13.7158 14.17Z" fill="white"/>
</svg>
