<?xml version="1.0" encoding="UTF-8" standalone="no"?><svg width="186" height="40" viewBox="0 0 186 40" fill="none" xmlns="http://www.w3.org/2000/svg">
<mask id="path-1-outside-1_33_10" maskUnits="userSpaceOnUse" x="48" y="10" width="119" height="19" fill="black">
<rect fill="white" x="48" y="10" width="119" height="19"/>
<path d="M54.5688 11.368C56.7608 11.368 58.4648 11.824 59.6808 12.736C60.8968 13.648 61.5048 15 61.5048 16.792C61.5048 18.664 60.9048 20.08 59.7048 21.04C58.5208 21.984 56.9288 22.456 54.9288 22.456H53.1288V28H49.1928V11.368H54.5688ZM54.5928 19.624C55.5208 19.624 56.2248 19.408 56.7048 18.976C57.2008 18.528 57.4488 17.8 57.4488 16.792C57.4488 15.048 56.4728 14.176 54.5208 14.176H53.1288V19.624H54.5928ZM67.5194 11.368V28H63.5834V11.368H67.5194ZM81.3427 11.368V14.344L74.1187 24.856H81.4627L81.0787 28H69.4867V25.048L76.8547 14.416H70.2307V11.368H81.3427ZM94.2568 11.368V14.344L87.0328 24.856H94.3768L93.9928 28H82.4008V25.048L89.7688 14.416H83.1448V11.368H94.2568ZM105.343 28L104.479 24.424H99.6314L98.7914 28H94.7114L99.7274 11.368H104.503L109.519 28H105.343ZM100.303 21.568H103.807L102.055 14.224L100.303 21.568ZM127.811 11.368L127.427 14.392H123.323V28H119.387V14.392H115.091V11.368H127.811ZM133.332 11.368V28H129.396V11.368H133.332ZM152.939 28H149.075L148.787 21.496C148.707 19.944 148.667 18.56 148.667 17.344C148.667 16.416 148.691 15.536 148.739 14.704L146.171 26.248H142.451L139.715 14.704C139.811 16.096 139.859 17.408 139.859 18.64C139.859 19.568 139.835 20.536 139.787 21.544L139.499 28H135.659L136.907 11.368H141.875L144.371 22.648L146.699 11.368H151.691L152.939 28ZM165.494 11.368L165.086 14.176H159.23V18.16H164.342V20.92H159.23V25.168H165.494V28H155.294V11.368H165.494Z"/>
</mask>
<path d="M54.5688 11.368C56.7608 11.368 58.4648 11.824 59.6808 12.736C60.8968 13.648 61.5048 15 61.5048 16.792C61.5048 18.664 60.9048 20.08 59.7048 21.04C58.5208 21.984 56.9288 22.456 54.9288 22.456H53.1288V28H49.1928V11.368H54.5688ZM54.5928 19.624C55.5208 19.624 56.2248 19.408 56.7048 18.976C57.2008 18.528 57.4488 17.8 57.4488 16.792C57.4488 15.048 56.4728 14.176 54.5208 14.176H53.1288V19.624H54.5928ZM67.5194 11.368V28H63.5834V11.368H67.5194ZM81.3427 11.368V14.344L74.1187 24.856H81.4627L81.0787 28H69.4867V25.048L76.8547 14.416H70.2307V11.368H81.3427ZM94.2568 11.368V14.344L87.0328 24.856H94.3768L93.9928 28H82.4008V25.048L89.7688 14.416H83.1448V11.368H94.2568ZM105.343 28L104.479 24.424H99.6314L98.7914 28H94.7114L99.7274 11.368H104.503L109.519 28H105.343ZM100.303 21.568H103.807L102.055 14.224L100.303 21.568ZM127.811 11.368L127.427 14.392H123.323V28H119.387V14.392H115.091V11.368H127.811ZM133.332 11.368V28H129.396V11.368H133.332ZM152.939 28H149.075L148.787 21.496C148.707 19.944 148.667 18.56 148.667 17.344C148.667 16.416 148.691 15.536 148.739 14.704L146.171 26.248H142.451L139.715 14.704C139.811 16.096 139.859 17.408 139.859 18.64C139.859 19.568 139.835 20.536 139.787 21.544L139.499 28H135.659L136.907 11.368H141.875L144.371 22.648L146.699 11.368H151.691L152.939 28ZM165.494 11.368L165.086 14.176H159.23V18.16H164.342V20.92H159.23V25.168H165.494V28H155.294V11.368H165.494Z" fill="#29854F"/>
<path d="M59.6808 12.736L60.2808 11.936H60.2808L59.6808 12.736ZM59.7048 21.04L60.3282 21.8219L60.3295 21.8209L59.7048 21.04ZM53.1288 22.456V21.456H52.1288V22.456H53.1288ZM53.1288 28V29H54.1288V28H53.1288ZM49.1928 28H48.1928V29H49.1928V28ZM49.1928 11.368V10.368H48.1928V11.368H49.1928ZM56.7048 18.976L57.3738 19.7193L57.3751 19.7181L56.7048 18.976ZM53.1288 14.176V13.176H52.1288V14.176H53.1288ZM53.1288 19.624H52.1288V20.624H53.1288V19.624ZM54.5688 12.368C56.6368 12.368 58.0995 12.8 59.0808 13.536L60.2808 11.936C58.8301 10.848 56.8849 10.368 54.5688 10.368V12.368ZM59.0808 13.536C59.9981 14.224 60.5048 15.2511 60.5048 16.792H62.5048C62.5048 14.7489 61.7955 13.072 60.2808 11.936L59.0808 13.536ZM60.5048 16.792C60.5048 18.4335 59.991 19.5304 59.0801 20.2591L60.3295 21.8209C61.8186 20.6296 62.5048 18.8945 62.5048 16.792H60.5048ZM59.0814 20.2581C58.1242 21.0213 56.7752 21.456 54.9288 21.456V23.456C57.0824 23.456 58.9175 22.9467 60.3282 21.8219L59.0814 20.2581ZM54.9288 21.456H53.1288V23.456H54.9288V21.456ZM52.1288 22.456V28H54.1288V22.456H52.1288ZM53.1288 27H49.1928V29H53.1288V27ZM50.1928 28V11.368H48.1928V28H50.1928ZM49.1928 12.368H54.5688V10.368H49.1928V12.368ZM54.5928 20.624C55.661 20.624 56.6438 20.3763 57.3738 19.7193L56.0358 18.2327C55.8058 18.4397 55.3806 18.624 54.5928 18.624V20.624ZM57.3751 19.7181C58.1683 19.0017 58.4488 17.9388 58.4488 16.792H56.4488C56.4488 17.6612 56.2334 18.0543 56.0345 18.2339L57.3751 19.7181ZM58.4488 16.792C58.4488 15.7349 58.1478 14.7676 57.3831 14.0843C56.6398 13.4202 55.6249 13.176 54.5208 13.176V15.176C55.3687 15.176 55.8179 15.3678 56.0506 15.5757C56.2618 15.7644 56.4488 16.1051 56.4488 16.792H58.4488ZM54.5208 13.176H53.1288V15.176H54.5208V13.176ZM52.1288 14.176V19.624H54.1288V14.176H52.1288ZM53.1288 20.624H54.5928V18.624H53.1288V20.624ZM67.5194 11.368H68.5194V10.368H67.5194V11.368ZM67.5194 28V29H68.5194V28H67.5194ZM63.5834 28H62.5834V29H63.5834V28ZM63.5834 11.368V10.368H62.5834V11.368H63.5834ZM66.5194 11.368V28H68.5194V11.368H66.5194ZM67.5194 27H63.5834V29H67.5194V27ZM64.5834 28V11.368H62.5834V28H64.5834ZM63.5834 12.368H67.5194V10.368H63.5834V12.368ZM81.3427 11.368H82.3427V10.368H81.3427V11.368ZM81.3427 14.344L82.1668 14.9104L82.3427 14.6545V14.344H81.3427ZM74.1187 24.856L73.2945 24.2896L72.2181 25.856H74.1187V24.856ZM81.4627 24.856L82.4553 24.9772L82.5923 23.856H81.4627V24.856ZM81.0787 28V29H81.964L82.0713 28.1212L81.0787 28ZM69.4867 28H68.4867V29H69.4867V28ZM69.4867 25.048L68.6648 24.4784L68.4867 24.7354V25.048H69.4867ZM76.8547 14.416L77.6766 14.9856L78.7643 13.416H76.8547V14.416ZM70.2307 14.416H69.2307V15.416H70.2307V14.416ZM70.2307 11.368V10.368H69.2307V11.368H70.2307ZM80.3427 11.368V14.344H82.3427V11.368H80.3427ZM80.5185 13.7776L73.2945 24.2896L74.9428 25.4224L82.1668 14.9104L80.5185 13.7776ZM74.1187 25.856H81.4627V23.856H74.1187V25.856ZM80.4701 24.7348L80.0861 27.8788L82.0713 28.1212L82.4553 24.9772L80.4701 24.7348ZM81.0787 27H69.4867V29H81.0787V27ZM70.4867 28V25.048H68.4867V28H70.4867ZM70.3086 25.6176L77.6766 14.9856L76.0328 13.8464L68.6648 24.4784L70.3086 25.6176ZM76.8547 13.416H70.2307V15.416H76.8547V13.416ZM71.2307 14.416V11.368H69.2307V14.416H71.2307ZM70.2307 12.368H81.3427V10.368H70.2307V12.368ZM94.2568 11.368H95.2568V10.368H94.2568V11.368ZM94.2568 14.344L95.0809 14.9104L95.2568 14.6545V14.344H94.2568ZM87.0327 24.856L86.2086 24.2896L85.1322 25.856H87.0327V24.856ZM94.3767 24.856L95.3694 24.9772L95.5063 23.856H94.3767V24.856ZM93.9928 28V29H94.878L94.9854 28.1212L93.9928 28ZM82.4007 28H81.4007V29H82.4007V28ZM82.4007 25.048L81.5788 24.4784L81.4007 24.7354V25.048H82.4007ZM89.7687 14.416L90.5907 14.9856L91.6784 13.416H89.7687V14.416ZM83.1447 14.416H82.1447V15.416H83.1447V14.416ZM83.1447 11.368V10.368H82.1447V11.368H83.1447ZM93.2568 11.368V14.344H95.2568V11.368H93.2568ZM93.4326 13.7776L86.2086 24.2896L87.8569 25.4224L95.0809 14.9104L93.4326 13.7776ZM87.0327 25.856H94.3767V23.856H87.0327V25.856ZM93.3841 24.7348L93.0001 27.8788L94.9854 28.1212L95.3694 24.9772L93.3841 24.7348ZM93.9928 27H82.4007V29H93.9928V27ZM83.4007 28V25.048H81.4007V28H83.4007ZM83.2227 25.6176L90.5907 14.9856L88.9468 13.8464L81.5788 24.4784L83.2227 25.6176ZM89.7687 13.416H83.1447V15.416H89.7687V13.416ZM84.1447 14.416V11.368H82.1447V14.416H84.1447ZM83.1447 12.368H94.2568V10.368H83.1447V12.368ZM105.343 28L104.371 28.2349L104.556 29H105.343V28ZM104.479 24.424L105.451 24.1891L105.267 23.424H104.479V24.424ZM99.6314 24.424V23.424H98.8391L98.6579 24.1953L99.6314 24.424ZM98.7914 28V29H99.5838L99.7649 28.2287L98.7914 28ZM94.7114 28L93.754 27.7113L93.3654 29H94.7114V28ZM99.7274 11.368V10.368H98.9845L98.77 11.0793L99.7274 11.368ZM104.503 11.368L105.461 11.0793L105.246 10.368H104.503V11.368ZM109.519 28V29H110.866L110.477 27.7113L109.519 28ZM100.303 21.568L99.3307 21.3359L99.0368 22.568H100.303V21.568ZM103.807 21.568V22.568H105.074L104.78 21.3359L103.807 21.568ZM102.055 14.224L103.028 13.992H101.083L102.055 14.224ZM106.315 27.7651L105.451 24.1891L103.507 24.6589L104.371 28.2349L106.315 27.7651ZM104.479 23.424H99.6314V25.424H104.479V23.424ZM98.6579 24.1953L97.8179 27.7713L99.7649 28.2287L100.605 24.6527L98.6579 24.1953ZM98.7914 27H94.7114V29H98.7914V27ZM95.6688 28.2887L100.685 11.6567L98.77 11.0793L93.754 27.7113L95.6688 28.2887ZM99.7274 12.368H104.503V10.368H99.7274V12.368ZM103.546 11.6567L108.562 28.2887L110.477 27.7113L105.461 11.0793L103.546 11.6567ZM109.519 27H105.343V29H109.519V27ZM100.303 22.568H103.807V20.568H100.303V22.568ZM104.78 21.3359L103.028 13.992L101.083 14.456L102.835 21.8001L104.78 21.3359ZM101.083 13.992L99.3307 21.3359L101.276 21.8001L103.028 14.456L101.083 13.992ZM127.811 11.368L128.803 11.494L128.946 10.368H127.811V11.368ZM127.427 14.392V15.392H128.308L128.419 14.518L127.427 14.392ZM123.323 14.392V13.392H122.323V14.392H123.323ZM123.323 28V29H124.323V28H123.323ZM119.387 28H118.387V29H119.387V28ZM119.387 14.392H120.387V13.392H119.387V14.392ZM115.091 14.392H114.091V15.392H115.091V14.392ZM115.091 11.368V10.368H114.091V11.368H115.091ZM126.819 11.242L126.435 14.266L128.419 14.518L128.803 11.494L126.819 11.242ZM127.427 13.392H123.323V15.392H127.427V13.392ZM122.323 14.392V28H124.323V14.392H122.323ZM123.323 27H119.387V29H123.323V27ZM120.387 28V14.392H118.387V28H120.387ZM119.387 13.392H115.091V15.392H119.387V13.392ZM116.091 14.392V11.368H114.091V14.392H116.091ZM115.091 12.368H127.811V10.368H115.091V12.368ZM133.332 11.368H134.332V10.368H133.332V11.368ZM133.332 28V29H134.332V28H133.332ZM129.396 28H128.396V29H129.396V28ZM129.396 11.368V10.368H128.396V11.368H129.396ZM132.332 11.368V28H134.332V11.368H132.332ZM133.332 27H129.396V29H133.332V27ZM130.396 28V11.368H128.396V28H130.396ZM129.396 12.368H133.332V10.368H129.396V12.368ZM152.939 28V29H154.017L153.936 27.9252L152.939 28ZM149.075 28L148.076 28.0442L148.118 29H149.075V28ZM148.787 21.496L149.786 21.4518L149.786 21.4445L148.787 21.496ZM148.739 14.704L149.738 14.7616L147.763 14.4869L148.739 14.704ZM146.171 26.248V27.248H146.973L147.147 26.4651L146.171 26.248ZM142.451 26.248L141.478 26.4786L141.66 27.248H142.451V26.248ZM139.715 14.704L140.688 14.4734L138.718 14.7728L139.715 14.704ZM139.787 21.544L138.788 21.4964L138.788 21.4994L139.787 21.544ZM139.499 28V29H140.456L140.498 28.0446L139.499 28ZM135.659 28L134.662 27.9252L134.581 29H135.659V28ZM136.907 11.368V10.368H135.979L135.91 11.2932L136.907 11.368ZM141.875 11.368L142.852 11.1519L142.678 10.368H141.875V11.368ZM144.371 22.648L143.395 22.864L145.351 22.8501L144.371 22.648ZM146.699 11.368V10.368H145.884L145.72 11.1659L146.699 11.368ZM151.691 11.368L152.688 11.2932L152.619 10.368H151.691V11.368ZM152.939 27H149.075V29H152.939V27ZM150.074 27.9558L149.786 21.4518L147.788 21.5402L148.076 28.0442L150.074 27.9558ZM149.786 21.4445C149.707 19.9052 149.667 18.5389 149.667 17.344H147.667C147.667 18.5811 147.708 19.9828 147.789 21.5475L149.786 21.4445ZM149.667 17.344C149.667 16.4331 149.691 15.5724 149.738 14.7616L147.741 14.6464C147.692 15.4996 147.667 16.3989 147.667 17.344H149.667ZM147.763 14.4869L145.195 26.0309L147.147 26.4651L149.715 14.9211L147.763 14.4869ZM146.171 25.248H142.451V27.248H146.171V25.248ZM143.424 26.0174L140.688 14.4734L138.742 14.9346L141.478 26.4786L143.424 26.0174ZM138.718 14.7728C138.812 16.1448 138.859 17.4337 138.859 18.64H140.859C140.859 17.3823 140.81 16.0472 140.713 14.6352L138.718 14.7728ZM138.859 18.64C138.859 19.5508 138.836 20.5029 138.788 21.4964L140.786 21.5916C140.835 20.5691 140.859 19.5852 140.859 18.64H138.859ZM138.788 21.4994L138.5 27.9554L140.498 28.0446L140.786 21.5886L138.788 21.4994ZM139.499 27H135.659V29H139.499V27ZM136.656 28.0748L137.904 11.4428L135.91 11.2932L134.662 27.9252L136.656 28.0748ZM136.907 12.368H141.875V10.368H136.907V12.368ZM140.899 11.5841L143.395 22.864L145.348 22.4319L142.852 11.1519L140.899 11.5841ZM145.351 22.8501L147.679 11.5701L145.72 11.1659L143.392 22.4459L145.351 22.8501ZM146.699 12.368H151.691V10.368H146.699V12.368ZM150.694 11.4428L151.942 28.0748L153.936 27.9252L152.688 11.2932L150.694 11.4428ZM165.494 11.368L166.484 11.5118L166.65 10.368H165.494V11.368ZM165.086 14.176V15.176H165.952L166.076 14.3198L165.086 14.176ZM159.23 14.176V13.176H158.23V14.176H159.23ZM159.23 18.16H158.23V19.16H159.23V18.16ZM164.342 18.16H165.342V17.16H164.342V18.16ZM164.342 20.92V21.92H165.342V20.92H164.342ZM159.23 20.92V19.92H158.23V20.92H159.23ZM159.23 25.168H158.23V26.168H159.23V25.168ZM165.494 25.168H166.494V24.168H165.494V25.168ZM165.494 28V29H166.494V28H165.494ZM155.294 28H154.294V29H155.294V28ZM155.294 11.368V10.368H154.294V11.368H155.294ZM164.505 11.2242L164.097 14.0322L166.076 14.3198L166.484 11.5118L164.505 11.2242ZM165.086 13.176H159.23V15.176H165.086V13.176ZM158.23 14.176V18.16H160.23V14.176H158.23ZM159.23 19.16H164.342V17.16H159.23V19.16ZM163.342 18.16V20.92H165.342V18.16H163.342ZM164.342 19.92H159.23V21.92H164.342V19.92ZM158.23 20.92V25.168H160.23V20.92H158.23ZM159.23 26.168H165.494V24.168H159.23V26.168ZM164.494 25.168V28H166.494V25.168H164.494ZM165.494 27H155.294V29H165.494V27ZM156.294 28V11.368H154.294V28H156.294ZM155.294 12.368H165.494V10.368H155.294V12.368Z" fill="white" mask="url(#path-1-outside-1_33_10)"/>
<path d="M10.8564 1.67246C14.7463 0.146075 19.9814 0.107424 23.9013 1.57189L17.9459 15.3379L10.8564 1.67246Z" fill="#29854F" stroke="white"/>
<path d="M34.4898 19.0743H31.6189H31.169L31.1217 19.5217C31.0914 19.808 31.0952 20.1041 31.0985 20.3635C31.0995 20.4404 31.1004 20.5141 31.1004 20.5834V21.0808L31.5978 21.0834L34.4647 21.0985C34.1373 27.2358 29.7032 33.1154 23.9688 35.306L23.9671 35.3067C22.1399 36.0122 20.522 36.444 18.5174 36.5328V33.7904V33.2987L18.0258 33.2905L16.9653 33.2727L16.4569 33.2642V33.7726V36.5395C10.0606 36.3372 4.23547 32.2687 1.77258 26.2533L1.7726 26.2533L1.77058 26.2485C1.09761 24.6525 0.694377 22.9376 0.550652 21.1008H3.27517H3.74808L3.7744 20.6287C3.79295 20.2959 3.79295 19.9303 3.79294 19.5993V19.5917V19.0943L3.29559 19.0917L0.511406 19.077C0.751242 13.1031 4.67836 7.42061 10.1466 4.92387L17.5431 19.1151L17.8199 18.9708L18.4453 19.1003L24.6232 4.82146C30.1819 7.21984 34.2594 13.0217 34.4898 19.0743Z" fill="#CF2C24" stroke="white"/>
</svg>
