<?xml version="1.0" encoding="UTF-8" standalone="no"?><svg width="35" height="38" viewBox="0 0 35 38" fill="none" xmlns="http://www.w3.org/2000/svg">
<path d="M10.8566 1.67246C14.7465 0.146075 19.9816 0.107424 23.9015 1.57189L17.9462 15.3379L10.8566 1.67246Z" fill="#29854F" stroke="white"/>
<path d="M34.4898 19.0743H31.6189H31.169L31.1217 19.5217C31.0914 19.808 31.0952 20.1041 31.0985 20.3635C31.0995 20.4404 31.1004 20.5141 31.1004 20.5834V21.0808L31.5978 21.0834L34.4647 21.0985C34.1373 27.2358 29.7032 33.1154 23.9688 35.306L23.9671 35.3067C22.1399 36.0122 20.522 36.444 18.5174 36.5328V33.7904V33.2987L18.0258 33.2905L16.9653 33.2727L16.4569 33.2642V33.7726V36.5395C10.0606 36.3372 4.23547 32.2687 1.77258 26.2533L1.7726 26.2533L1.77058 26.2485C1.09761 24.6525 0.694377 22.9376 0.550652 21.1008H3.27517H3.74808L3.7744 20.6287C3.79295 20.2959 3.79295 19.9303 3.79294 19.5993V19.5917V19.0943L3.29559 19.0917L0.511406 19.077C0.751242 13.1031 4.67836 7.42061 10.1466 4.92387L17.5431 19.1151L17.8199 18.9708L18.4453 19.1003L24.6232 4.82146C30.1819 7.21984 34.2594 13.0217 34.4898 19.0743Z" fill="#CF2C24" stroke="white"/>
</svg>
