<?xml version="1.0" encoding="UTF-8" standalone="no"?><svg width="10" height="16" viewBox="0 0 10 16" fill="none" xmlns="http://www.w3.org/2000/svg">
<path d="M4.01615 11.2698C2.7758 11.1404 1.65744 10.8349 0.699945 10.0861C0.581138 9.9929 0.458477 9.90309 0.350059 9.79903C-0.0690334 9.39652 -0.111261 8.93554 0.22036 8.46048C0.504056 8.05395 0.98029 7.9452 1.47529 8.17862C1.57114 8.22387 1.66247 8.28034 1.74994 8.341C3.53439 9.56711 5.98577 9.60096 7.77693 8.39613C7.95438 8.26006 8.14407 8.14913 8.36392 8.09249C8.7914 7.98273 9.19005 8.13975 9.41945 8.51376C9.68153 8.9409 9.67818 9.35781 9.35527 9.68944C8.85993 10.1978 8.26422 10.5657 7.60232 10.8224C6.97645 11.065 6.29092 11.1872 5.61243 11.2683C5.71481 11.3797 5.76307 11.4345 5.82708 11.4989C6.74838 12.4245 7.6737 13.3463 8.59199 14.2748C8.90484 14.5912 8.97019 14.9835 8.79793 15.3515C8.60958 15.7536 8.18798 16.0182 7.77458 15.9899C7.51267 15.9718 7.3084 15.8414 7.12692 15.6586C6.43168 14.959 5.72336 14.2723 5.04219 13.5595C4.84395 13.3522 4.7486 13.3914 4.57366 13.5714C3.87422 14.2914 3.16339 15.0004 2.44837 15.7054C2.12731 16.0219 1.74525 16.0789 1.37291 15.8981C0.977106 15.7062 0.725248 15.3022 0.744686 14.8962C0.758092 14.6215 0.893153 14.4117 1.08167 14.2235C1.99342 13.3131 2.90265 12.4004 3.81222 11.4885C3.87238 11.4278 3.92852 11.3635 4.01615 11.2698Z" fill="white"/>
<path d="M4.7717 8.09851C2.55894 8.09096 0.74449 6.25658 0.757393 4.0403C0.770128 1.79955 2.58575 -0.00618417 4.82029 1.59185e-05C7.05936 0.00604844 8.85655 1.83776 8.84532 4.10179C8.83393 6.31355 7.00691 8.10621 4.7717 8.09851ZM6.78271 4.04566C6.77885 2.94523 5.90246 2.06917 4.80421 2.06816C3.69674 2.06699 2.81247 2.95897 2.82102 4.06945C2.82923 5.1657 3.71316 6.03555 4.81443 6.03153C5.91235 6.02768 6.78639 5.14592 6.78271 4.04566Z" fill="white"/>
</svg>
