<?xml version="1.0" encoding="UTF-8" standalone="no"?><svg width="16" height="10" viewBox="0 0 16 10" fill="none" xmlns="http://www.w3.org/2000/svg">
<path d="M15.6321 0.683844C15.7434 0.293872 15.6321 0.00696368 15.1023 0.00696368H13.3524C13.1889 -0.00467771 13.0263 0.039819 12.8889 0.133759C12.7516 0.227699 12.6469 0.366 12.5908 0.527855C12.5908 0.527855 11.7006 2.80919 10.4395 4.2883C10.0315 4.71727 9.84609 4.85376 9.62355 4.85376C9.51228 4.85376 9.34538 4.71449 9.34538 4.3273V0.683844C9.34538 0.215877 9.22219 0.00696368 8.85128 0.00696368H6.10132C5.98964 0.000498504 5.88008 0.040848 5.79665 0.119169C5.71323 0.19749 5.66273 0.307393 5.65624 0.424791C5.65624 0.869081 6.28677 0.970752 6.35168 2.21866V4.93315C6.35168 5.52786 6.24968 5.62953 6.02714 5.62953C5.4337 5.62953 3.98983 3.33844 3.13411 0.715877C2.96588 0.206128 2.79765 0 2.35125 0H0.600065C0.0993485 0 0 0.247911 0 0.520892C0 1.00836 0.593442 3.42618 2.76321 6.62396C4.20973 8.8078 6.24703 9.99164 8.10153 9.99164C9.21424 9.99164 9.352 9.72841 9.352 9.27577V7.63092C9.352 7.10446 9.45797 7 9.81033 7C10.0753 7 10.515 7.13928 11.5536 8.18941C12.7457 9.4429 12.9365 10 13.6041 10H15.354C15.8547 10 16.1037 9.73677 15.9593 9.21866C15.8149 8.70056 15.2348 7.95125 14.4824 7.06267C14.0744 6.55571 13.4624 6.00975 13.2769 5.73677C13.012 5.38579 13.0915 5.2298 13.2769 4.91783C13.2769 4.91365 15.4096 1.75487 15.6321 0.683844Z" fill="white"/>
</svg>
